Coordinates
version=1
nRows=19
nColumns=36
inDegrees=yes

Units are S.I. units (second, meters, Newtons, ...)
If the header above contains a line with 'inDegrees', this indicates whether rotational values are in degrees (yes) or radians (no).

endheader
time	pelvis_tilt	pelvis_list	pelvis_rotation	pelvis_tx	pelvis_ty	pelvis_tz	hip_flexion_r	hip_adduction_r	hip_rotation_r	knee_angle_r	knee_angle_r_beta	ankle_angle_r	subtalar_angle_r	mtp_angle_r	hip_flexion_l	hip_adduction_l	hip_rotation_l	knee_angle_l	knee_angle_l_beta	ankle_angle_l	subtalar_angle_l	mtp_angle_l	lumbar_extension	lumbar_bending	lumbar_rotation	arm_flex_r	arm_add_r	arm_rot_r	elbow_flex_r	pro_sup_r	arm_flex_l	arm_add_l	arm_rot_l	elbow_flex_l	pro_sup_l
      7.15000000	    -11.64774125	     -0.64320593	     -1.59308581	      0.78581735	      1.28606777	      0.06040444	     19.89936253	     -7.58006209	     -7.18288251	      5.51087923	      0.09618299	     -8.28246703	      0.28853975	     -7.49999987	     22.38350988	     -2.83364170	      1.37553548	      8.48799589	      0.14814348	    -12.99588885	      9.37573026	     -7.49999987	    -12.36591327	      2.97130348	      1.26194419	     -9.99823990	    -17.00719042	     12.69232615	     47.74851914	     91.49830647	    369.77060889	    -19.32991019	    370.77554414	     33.13474094	     83.98566826
      7.16666670	    -11.71821144	     -0.65203315	     -2.14734504	      0.78461948	      1.27699982	      0.06004667	     20.64048318	     -7.17626667	     -6.59542155	      5.17046208	      0.09024159	     -6.72375093	      0.76418710	     -7.49999987	     22.76907067	     -3.22497611	      1.05766217	      8.09117900	      0.14121771	    -11.51493421	      8.32212597	     -7.49999987	    -13.40747446	      2.69387539	      0.42625418	     -6.63437858	    -14.81648021	     12.00565851	     41.06730598	     90.94351136	    368.89992375	    -15.83964114	    368.71970942	     32.92886230	     84.84461550
      7.18333330	    -11.78497423	     -0.77269585	     -2.71305471	      0.78647067	      1.25821315	      0.06117894	     21.24398965	     -6.52036291	     -5.83403741	      5.42569701	      0.09469628	     -5.11147419	      0.80713525	     -7.49999987	     23.04176701	     -3.80840946	      1.28688389	      8.09196732	      0.14123147	     -9.94857952	      7.22960486	     -7.49999987	    -14.17710374	      2.35600194	      0.17695666	     -4.93310248	    -12.63546172	      9.80522629	     36.29911629	     90.48921449	    368.91579541	    -13.02361998	    368.19696364	     33.38690957	     84.96142106
      7.20000000	    -12.14786813	     -0.89301322	     -2.94003458	      0.79044709	      1.23328802	      0.06215074	     22.21951403	     -5.95270381	     -4.66324806	      6.04081282	      0.10543207	     -2.88680152	      0.74236048	     -7.49999987	     23.63481517	     -4.39588061	      1.42496473	      8.52897773	      0.14885874	     -7.94956921	      5.77778427	     -7.49999987	    -14.11136277	      1.99619680	     -0.35476593	     -4.67363295	    -10.61175127	      6.44944241	     33.35238054	     89.85868546	    368.18940562	    -10.45884249	    367.20637929	     34.01204206	     85.41419932
      7.21666670	    -12.18595447	     -1.06724658	     -3.41637045	      0.79872564	      1.21595009	      0.06142689	     22.44609915	     -5.27228307	     -3.34932893	      6.68553693	      0.11668463	     -0.95479267	      0.89804237	     -7.49999987	     23.46048072	     -5.11746688	      2.00457916	      8.80773037	      0.15372389	     -6.10870891	      4.87689138	     -7.49999987	    -13.95603013	      1.74447216	     -0.66185292	     -5.13172029	     -9.67424623	      5.91281156	     32.32639257	     89.51519583	    367.40495591	     -8.00989309	    367.43034217	     34.34157697	     85.34869904
      7.23333330	    -12.67986970	     -1.13969439	     -4.05922511	      0.79958340	      1.19000784	      0.06222460	     23.58051069	     -4.68750924	     -2.14382921	      8.14488680	      0.14215509	      1.27096335	      1.37856142	     -7.49999987	     23.91231049	     -5.77343347	      2.24492778	      9.37659444	      0.16365245	     -4.78785408	      3.54839283	     -7.49999987	    -13.09458620	      1.15552840	     -0.25313487	     -5.08512543	     -7.88733719	      3.01160008	     28.23439949	     89.19786130	    367.24781328	     -5.50542034	    367.31018106	     34.35808805	     86.02854126
      7.25000000	    -13.17705724	     -1.41438590	     -4.37071576	      0.79797910	      1.15929287	      0.06131722	     24.99665510	     -3.88248668	     -0.85036741	     10.25295608	      0.17894784	      2.68162341	      1.40861614	     -7.49999987	     24.83955053	     -6.52936252	      3.11494248	     10.79811804	      0.18846271	     -3.84318680	      2.14824274	     -7.49999987	    -12.43842699	      0.85652660	     -0.33283084	     -5.07347526	     -6.51215704	     -0.42861145	     26.71787419	     87.81815854	    367.55921846	     -3.34925202	    367.81535948	     33.61621085	     86.59901501
      7.26666670	    -13.48837681	     -1.50561709	     -4.67143519	      0.79342034	      1.13716033	      0.05518420	     26.43671438	     -3.58288388	      0.03151745	     12.94529484	      0.22593802	      3.60185530	      1.40956576	     -7.49999987	     25.84890390	     -6.95081175	      4.11036942	     12.70671056	      0.22177394	     -3.56279171	      0.74998758	     -7.49999987	    -12.53930037	      0.41760588	      1.04643956	     -5.96303302	     -5.56041332	     -6.14569497	     28.12323254	     90.09018613	    369.28170628	     -1.62383083	    371.69950430	     31.66425196	     91.26695452
      7.28333330	    -13.65710861	     -1.87888827	     -4.63388458	      0.79153101	      1.10790193	      0.05271687	     27.86447713	     -3.06196817	      0.82970127	     15.98123184	      0.27892511	      4.78785444	      1.64533834	     -7.49999987	     26.82166723	     -7.53287197	      5.25993933	     15.09419744	      0.26344344	     -4.25744686	     -0.76117450	     -7.49999987	    -12.72250481	      0.33462270	      0.61345011	     -4.80098387	     -5.28609345	     -6.53317451	     27.44027740	     89.23370112	    369.47961936	     -0.49349868	    371.94931086	     31.88889764	     90.60708991
      7.30000000	    -13.68154044	     -2.13626879	     -4.76928040	      0.79106861	      1.07507404	      0.04726439	     29.18718129	     -2.71321855	      1.29544623	     19.56750389	      0.34151737	      5.52485824	      2.30328456	     -7.49999987	     27.61709263	     -7.91254470	      6.29057153	     18.04282708	      0.31490674	     -5.77028204	     -2.25180405	     -7.49999987	    -12.99490103	      0.34718659	      1.44598047	     -4.86013078	     -5.41604690	     -7.93556830	     28.73127972	     89.58420189	    370.57349740	     -0.05625953	    375.78210880	     32.44643357	     91.44919453
      7.31666670	    -13.45703430	     -2.28612978	     -4.93228580	      0.78943725	      1.03991678	      0.04681647	     30.06542847	     -2.40322757	      1.77902681	     22.81586735	      0.39821201	      5.76868118	      3.72088527	     -7.49999987	     28.05611289	     -8.16943431	      7.34827709	     20.57179733	      0.35904560	     -6.52546711	     -2.82445474	     -7.49999987	    -13.35786479	      0.09987425	      1.94170256	     -5.08359989	     -5.13517546	    -11.24300917	     30.27859411	     91.77616590	    371.20801080	     -0.07869729	    376.88268967	     34.57897282	     92.52420950
      7.33333330	    -13.29420634	     -1.76559706	     -4.71266939	      0.79266117	      1.00108099	      0.04321604	     30.78900722	     -3.07886818	      1.70032233	     25.96520994	      0.45317840	      6.87048402	      4.01325444	     -7.49999987	     28.45368609	     -7.32351801	      8.36138504	     23.22951652	      0.40543155	     -4.45958110	     -3.14232146	     -7.49999987	    -13.71909782	     -0.76170945	      1.36500873	     -4.74097951	     -5.08359840	    -11.42117057	     30.86683481	     88.73705660	    371.15776543	     -0.81009223	    376.57857724	     38.58457865	     89.96014286
      7.35000000	    -12.91056975	     -0.92095492	     -4.13829096	      0.80167906	      0.96387489	      0.04075248	     31.20196658	     -4.38946616	      1.86491664	     29.40991831	      0.51329991	      9.70074856	      2.51864680	     -7.49999987	     28.62582799	     -5.86563960	      8.69200577	     26.34398224	      0.45978923	      0.93159517	     -4.38571169	     -7.49999987	    -13.99693497	     -1.99424365	      0.65096109	     -4.67384365	     -4.65761462	    -12.20868671	     30.74818868	     88.46637674	    371.51178301	     -2.35226748	    378.87605241	     41.57151790	     90.29554734
      7.36666670	    -13.07785104	     -0.03071184	     -3.33701651	      0.79509636	      0.92232065	      0.03618555	     33.24175982	     -5.98638350	      2.15492296	     34.21005875	      0.59707816	     15.85127324	      1.08461987	     -7.49999987	     31.63225865	     -3.77723774	      9.33189559	     32.88156770	      0.57389162	      8.67075397	     -6.42528844	     -7.49999987	    -14.47195396	     -3.04616076	     -0.10936037	     -4.42582003	     -4.43295272	    -12.94429461	     31.44441043	     88.61521794	    372.45683400	     -3.68207952	    380.22331573	     44.26405330	     90.73725495
      7.38333330	    -13.61546753	      0.59089107	     -2.85569801	      0.79732019	      0.89373719	      0.03049373	     36.84067533	     -7.53645720	      2.69571195	     40.89781318	      0.71380150	     21.93361704	      0.35820914	     -7.49999987	     36.18975070	     -1.73376381	     10.05848785	     41.42608321	      0.72302155	     17.08761287	     -7.70134280	     -7.49999987	    -14.77640175	     -3.47047249	     -1.03140210	     -3.99872696	     -4.39958508	    -13.43083074	     32.09489098	     87.54509267	    372.97467949	     -4.50823470	    380.05160259	     45.71750336	     89.58265252
      7.40000000	    -14.51282158	      0.68836089	     -2.72542288	      0.79083568	      0.87814869	      0.03200315	     41.50632613	     -7.85291196	      3.56135132	     47.90108794	      0.83603170	     26.97546915	     -0.22288001	     -7.49999987	     41.71393106	     -0.78331089	     10.23777210	     50.43649945	      0.88028298	     23.73978977	     -8.04690651	     -7.49999987	    -15.21762268	     -3.54746784	     -1.40242636	     -2.96193282	     -4.18738289	    -13.47376198	     32.20863692	     87.99162295	    374.04881598	     -5.20398307	    379.72551935	     46.17727215	     89.97388137
      7.41666670	    -14.50347066	      0.53093724	     -2.44907185	      0.79762622	      0.86680572	      0.02764656	     44.34298486	     -7.71825381	      4.65984468	     53.93595741	      0.94136004	     30.45675483	     -1.04437502	     -7.49999987	     45.35089707	     -0.14286750	     10.57346708	     58.02586486	      1.01274239	     28.49302550	     -7.92879918	     -7.49999987	    -15.92358157	     -3.18560466	     -1.89323930	     -2.28403060	     -4.06347461	    -13.38525782	     32.18904228	     88.03083310	    374.04099764	     -5.41814843	    378.33242137	     45.77247649	     89.94249700
      7.43333330	    -13.96290370	      0.41529152	     -2.39918593	      0.80046409	      0.86449886	      0.02244607	     45.41739548	     -7.42893182	      5.69112666	     57.56353826	      1.00467327	     31.24620323	     -2.46186665	     -7.49999987	     46.86523791	      0.17819986	     10.51235994	     62.65562219	      1.09354690	     30.87940806	     -7.54177639	     -7.49999987	    -16.90383335	     -2.83361694	     -1.87480531	     -1.19612764	     -4.07929606	    -13.56580833	     31.79668768	     89.92190455	    374.10202620	     -4.83662936	    376.26168948	     43.52632246	     91.34253884
      7.45000000	    -12.97365522	      0.40478721	     -2.18687258	      0.80462711	      0.86647149	      0.02252141	     44.83568973	     -7.02775019	      6.66788174	     59.07187310	      1.03099868	     31.66734396	     -3.49197429	     -7.49999987	     46.42696052	      0.32182864	     10.40048619	     64.42267340	      1.12438776	     31.50411371	     -7.65906518	     -7.49999987	    -18.04088866	     -2.79947788	     -1.92130238	     -0.29845883	     -3.61594534	    -13.51260601	     31.89006104	     90.09641891	    373.61238314	     -4.93363193	    375.77143470	     42.21243402	     91.41008449
